<?xml version="1.0" standalone="no"?><!DOCTYPE svg PUBLIC "-//W3C//DTD SVG 1.1//EN" "http://www.w3.org/Graphics/SVG/1.1/DTD/svg11.dtd"><svg t="1610634183784" class="icon" viewBox="0 0 1024 1024" version="1.1" xmlns="http://www.w3.org/2000/svg" p-id="1581" xmlns:xlink="http://www.w3.org/1999/xlink" width="200" height="200"><defs><style type="text/css"></style></defs><path d="M661.336 128.018h-149.34c-11.782 0-21.328-9.546-21.328-21.328s9.546-21.344 21.328-21.344h149.34c11.782 0 21.342 9.562 21.342 21.344s-9.56 21.328-21.342 21.328z" fill="#ED5564" p-id="1582"></path><path d="M767.988 170.69H618.68c-11.782 0-21.344-9.562-21.344-21.344 0-11.78 9.562-21.328 21.344-21.328h149.308c11.782 0 21.344 9.546 21.344 21.328 0 11.78-9.562 21.344-21.344 21.344z" fill="#DA4453" p-id="1583"></path><path d="M511.996 213.344c-11.782 0-21.328-9.546-21.328-21.328V64.02c0-11.78 9.546-21.328 21.328-21.328s21.328 9.546 21.328 21.328v127.996c0 11.782-9.546 21.328-21.328 21.328z" fill="#CCD1D9" p-id="1584"></path><path d="M959.982 981.306H64.01c-11.782 0-21.328-9.532-21.328-21.312V661.316c0-11.75 9.546-21.312 21.328-21.312h895.972c11.782 0 21.342 9.562 21.342 21.312v298.678c0 11.782-9.56 21.312-21.342 21.312z" fill="#FFCE54" p-id="1585"></path><path d="M97.554 746.688h165.324v165.308H97.554zM749.332 749.312h165.34v165.372h-165.34z" fill="#5D9CEC" p-id="1586"></path><path d="M511.996 471.336c-11.782 0-21.328-9.546-21.328-21.328V394.68c0-11.78 9.546-21.342 21.328-21.342s21.328 9.562 21.328 21.342v55.328c0 11.782-9.546 21.328-21.328 21.328z" fill="#434A54" p-id="1587"></path><path d="M511.996 266.686c-29.406 0-53.326 23.92-53.326 53.328v31.998c0 11.782 9.546 21.328 21.326 21.328h63.998c11.782 0 21.344-9.546 21.344-21.328v-31.998c0-29.406-23.938-53.328-53.342-53.328z" fill="#FFCE54" p-id="1588"></path><path d="M917.328 853.31h-170.652c-11.782 0-21.344-9.532-21.344-21.312 0-11.78 9.562-21.31 21.344-21.31h170.652c11.782 0 21.344 9.532 21.344 21.31 0 11.782-9.562 21.312-21.344 21.312z" fill="#CCD1D9" p-id="1589"></path><path d="M831.986 938.684c-11.782 0-21.312-9.562-21.312-21.376v-170.622c0-11.812 9.532-21.376 21.312-21.376 11.78 0 21.342 9.562 21.342 21.376v170.622c0 11.814-9.562 21.376-21.342 21.376zM277.33 853.31H106.68c-11.782 0-21.344-9.532-21.344-21.312 0-11.78 9.562-21.31 21.344-21.31h170.65c11.782 0 21.344 9.532 21.344 21.31 0 11.782-9.562 21.312-21.344 21.312z" fill="#CCD1D9" p-id="1590"></path><path d="M192.006 938.684c-11.782 0-21.328-9.562-21.328-21.376v-170.622c0-11.812 9.546-21.376 21.328-21.376 11.78 0 21.326 9.562 21.326 21.376v170.622c0 11.814-9.546 21.376-21.326 21.376z" fill="#CCD1D9" p-id="1591"></path><path d="M1023.48 656.692l-42.656-191.98a21.36 21.36 0 0 0-20.842-16.702H64.01c-10 0-18.656 6.938-20.828 16.702L0.51 656.692a21.456 21.456 0 0 0 4.188 18 21.306 21.306 0 0 0 16.64 7.998h981.33c6.468 0 12.562-2.938 16.624-7.998a21.344 21.344 0 0 0 4.188-18z" fill="#ED5564" p-id="1592"></path><path d="M597.336 640.004h-170.666c-11.782 0-21.344-9.562-21.344-21.312V234.688a21.36 21.36 0 0 1 11.796-19.094l85.326-42.654a21.38 21.38 0 0 1 19.094 0l85.324 42.654a21.402 21.402 0 0 1 11.812 19.094v384.004c0.002 11.75-9.56 21.312-21.342 21.312z m-149.338-42.688h127.994V247.86l-63.996-32-63.998 32v349.456z" fill="#CCD1D9" p-id="1593"></path><path d="M628.21 226.266L521.542 172.94a21.38 21.38 0 0 0-19.094 0l-106.652 53.326a21.34 21.34 0 0 0-11.234 23.984 21.356 21.356 0 0 0 20.764 16.436H618.68c9.876 0 18.468-6.812 20.75-16.436a21.332 21.332 0 0 0-11.22-23.984z" fill="#434A54" p-id="1594"></path><path d="M426.67 406.604h170.666v212.086h-170.666z" fill="#CCD1D9" p-id="1595"></path><path d="M917.328 554.694H682.678c-11.78 0-21.342-9.562-21.342-21.358 0-11.782 9.562-21.328 21.342-21.328h234.65c11.782 0 21.344 9.546 21.344 21.328 0 11.794-9.562 21.358-21.344 21.358zM938.672 618.692H703.99c-11.782 0-21.312-9.562-21.312-21.376 0-11.748 9.532-21.31 21.312-21.31h234.682c11.78 0 21.31 9.562 21.31 21.31 0 11.812-9.53 21.376-21.31 21.376zM341.328 554.694H106.68c-11.782 0-21.344-9.562-21.344-21.358 0-11.782 9.562-21.328 21.344-21.328h234.648c11.782 0 21.344 9.546 21.344 21.328 0 11.794-9.562 21.358-21.344 21.358zM320.002 618.692H85.336c-11.782 0-21.326-9.562-21.326-21.376 0-11.748 9.544-21.31 21.326-21.31h234.666c11.782 0 21.326 9.562 21.326 21.31 0 11.812-9.544 21.376-21.326 21.376z" fill="#DA4453" p-id="1596"></path><path d="M675.208 645.128l-149.478-127.996a21.34 21.34 0 0 0-27.766 0.016l-149.184 127.98a21.374 21.374 0 0 0-7.454 16.188v298.678c0 11.782 9.562 21.312 21.344 21.312h298.664c11.782 0 21.342-9.532 21.342-21.312V661.316c0.002-6.188-2.748-12.124-7.468-16.188z" fill="#E6E9ED" p-id="1597"></path><path d="M575.992 810.688h-128.276c-11.782 0-21.344 9.532-21.344 21.31v149.308h170.962v-149.308c0.002-11.78-9.56-21.31-21.342-21.31z" fill="#ED5564" p-id="1598"></path><path d="M490.512 810.688h42.672v170.62h-42.672z" fill="#DA4453" p-id="1599"></path><path d="M917.328 938.684h-170.652c-11.782 0-21.344-9.562-21.344-21.376v-170.622c0-11.812 9.562-21.376 21.344-21.376h170.652c11.782 0 21.344 9.562 21.344 21.376v170.622c0 11.814-9.562 21.376-21.344 21.376z m-149.34-42.688h127.996V768h-127.996v127.996zM277.33 938.684H106.68c-11.782 0-21.344-9.562-21.344-21.376v-170.622c0-11.812 9.562-21.376 21.344-21.376h170.65c11.782 0 21.344 9.562 21.344 21.376v170.622c0 11.814-9.562 21.376-21.344 21.376z m-149.322-42.688h127.996V768H128.008v127.996z" fill="#E6E9ED" p-id="1600"></path><path d="M474.872 649.316h67.998v65.374h-67.998z" fill="#5D9CEC" p-id="1601"></path><path d="M511.996 746.688c-35.296 0-63.998-28.748-63.998-63.998 0-35.31 28.702-63.998 63.998-63.998 35.31 0 63.996 28.688 63.996 63.998 0 35.25-28.686 63.998-63.996 63.998z m0-85.372c-11.766 0-21.328 9.594-21.328 21.374 0 11.75 9.562 21.312 21.328 21.312s21.328-9.562 21.328-21.312c0-11.78-9.562-21.374-21.328-21.374z" fill="#CCD1D9" p-id="1602"></path></svg>